<svg width="1065" height="668" viewBox="0 0 1065 668" fill="none" xmlns="http://www.w3.org/2000/svg">
    <defs>
        <style>
            :root {
                --primary-color: #1e1e1e;
                --secondary-color: #08111e;
            }
        </style>
    </defs>
<g style="mix-blend-mode:luminosity" clip-path="url(#clip0_30_946)">
<path opacity="0.6" d="M324.305 271.728V301.173H493.606V271.728H324.305ZM490.175 297.457L476.161 286.307L490.175 275.158V297.457ZM487.887 274.872L474.732 285.164L461.576 274.586L487.887 274.872ZM454.999 274.872L441.843 285.164L428.688 274.586L454.999 274.872ZM421.825 274.872L408.669 285.45L395.514 274.872H421.825ZM388.651 274.872L375.495 285.45L362.34 274.872H388.651ZM355.763 274.872L342.607 285.45L329.452 274.872H355.763ZM327.736 275.73L341.178 286.307L327.736 296.885V275.73ZM329.452 298.028L342.607 287.451L355.763 298.028H329.452ZM357.479 297.171L344.037 286.593L357.479 276.016V297.171ZM360.91 276.016L374.066 286.593L360.91 297.171V276.016ZM362.34 298.028L375.495 287.451L388.651 298.028H362.34ZM390.653 297.171L376.925 286.307L390.653 275.444V297.171ZM394.084 276.016L407.24 286.593L394.084 297.171V276.016ZM395.514 298.028L408.669 287.451L421.825 298.028H395.514ZM423.827 297.171L410.099 286.307L423.827 275.444V297.171ZM427.258 276.016L440.414 286.307L427.258 296.599V276.016ZM428.688 298.028L441.843 287.451L454.999 298.028H428.688ZM457.001 297.457L443.273 286.593L457.287 275.444L457.001 297.457ZM460.432 276.302L473.302 286.593L460.432 296.885V276.302ZM461.576 298.028L474.732 287.451L487.887 298.028H461.576Z" fill="var(--secondary-color)"/>
<path d="M667.484 42.4534V64.1801H743.555V42.4534H667.484ZM739.266 44.7404L729.542 52.4591L719.819 44.7404H739.266ZM714.957 44.7404L705.234 52.4591L695.51 44.7404H714.957ZM690.649 44.7404L680.925 52.4591L671.202 44.7404H690.649ZM670.058 45.598L679.781 53.3167L670.058 61.0354V45.598ZM671.202 61.8931L680.925 54.1744L690.649 61.8931H671.202ZM692.078 61.3213L682.069 53.3167L692.078 45.3122V61.3213ZM694.652 45.598L704.376 53.3167L694.652 61.0354V45.598ZM695.51 61.8931L705.234 54.1744L714.957 61.8931H695.51ZM716.673 61.3213L706.378 53.3167L716.673 45.0263V61.3213ZM718.961 45.598L728.398 53.0308L718.961 60.4637V45.598ZM719.819 61.8931L729.542 54.1744L739.266 61.8931H719.819ZM741.268 61.6072L730.972 53.3167L741.268 45.0263V61.6072Z" fill="var(--secondary-color)"/>
<path d="M972.342 93.6255V106.776H1018.38V93.6255H972.342ZM1015.81 95.0549L1009.81 99.6289L1003.8 95.0549H1015.81ZM1000.94 95.0549L994.934 99.6289L988.929 95.0549H1000.94ZM986.069 95.0549L980.063 99.6289L974.057 95.0549H986.069ZM973.771 95.6266L979.777 100.201L973.771 104.775V95.6266ZM974.343 105.632L980.349 101.058L986.355 105.632H974.343ZM987.213 105.061L981.207 100.201L987.213 95.3408V105.061ZM988.643 95.6266L994.362 100.201L988.643 104.775V95.6266ZM989.215 105.632L995.22 101.058L1001.23 105.632H989.215ZM1002.08 105.346L995.792 100.487L1002.08 95.6266V105.346ZM1003.51 95.6266L1009.23 100.201L1003.51 104.775V95.6266ZM1004.09 105.632L1010.09 101.058L1016.1 105.632H1004.09ZM1016.95 105.346L1010.66 100.487L1016.95 95.3408V105.346Z" fill="var(--secondary-color)"/>
<path d="M487.887 338.051C487.887 349.2 478.735 358.062 467.868 358.062H428.974C417.821 358.062 408.955 348.914 408.955 338.051C408.955 326.902 418.107 318.039 428.974 318.039H467.868C478.735 317.754 487.887 326.902 487.887 338.051Z" fill="var(--secondary-color)"/>
<path d="M457.858 312.894H439.842V315.467H457.858V312.894Z" fill="var(--secondary-color)"/>
<path d="M455.571 315.753H442.701V320.613H455.571V315.753Z" fill="var(--secondary-color)"/>
<path d="M484.169 358.062H412.673V361.207H484.169V358.062Z" fill="var(--secondary-color)"/>
<path d="M412.387 402.374H427.544V315.181H412.387V402.374ZM425.828 316.896L420.109 324.043L414.389 316.896H425.828ZM414.103 318.04L419.537 324.901L414.103 331.762V318.04ZM414.103 335.192L419.537 342.053L414.103 348.915V335.192ZM414.103 352.059L419.537 358.92L414.103 365.781V352.059ZM414.103 369.212L419.537 376.073L414.103 382.934V369.212ZM414.103 386.079L419.537 392.94L414.103 399.801V386.079ZM414.675 400.658L420.109 393.797L425.542 400.658H414.675ZM426.114 399.801L420.681 392.94L426.114 386.079V399.801ZM425.542 385.221L420.109 392.082L414.675 385.221H425.542ZM414.675 383.506L420.109 376.645L425.542 383.506H414.675ZM426.114 382.648L420.681 375.787L426.114 368.926V382.648ZM425.828 368.068L420.109 375.215L414.389 368.068H425.828ZM414.675 366.353L420.109 359.492L425.542 366.353H414.675ZM426.114 365.781L420.681 358.92L426.114 352.059V365.781ZM425.828 350.916L420.109 358.063L414.389 350.916H425.828ZM414.675 349.486L420.109 342.911L425.542 349.486H414.675ZM426.114 348.629L420.681 341.768L426.114 334.906V348.629ZM425.828 334.049L420.109 341.196L414.389 334.049H425.828ZM414.961 332.334L420.109 325.758L425.256 332.334H414.961ZM426.114 331.762L420.681 324.901L426.114 318.04V331.762Z" fill="var(--secondary-color)"/>
<path d="M468.726 402.374H483.883V315.181H468.726V402.374ZM482.167 316.896L476.447 324.043L470.728 316.896H482.167ZM470.442 318.04L475.875 324.901L470.442 331.762V318.04ZM470.442 335.192L475.875 342.053L470.442 348.915V335.192ZM470.442 352.059L475.875 358.92L470.442 365.781V352.059ZM470.442 369.212L475.875 376.073L470.442 382.934V369.212ZM470.442 386.079L475.875 392.94L470.442 399.801V386.079ZM471.014 400.658L476.447 393.797L481.881 400.658H471.014ZM482.453 399.801L477.019 392.94L482.453 386.079V399.801ZM481.881 385.221L476.447 392.082L471.014 385.221H481.881ZM471.014 383.506L476.447 376.645L481.881 383.506H471.014ZM482.453 382.648L477.019 375.787L482.453 368.926V382.648ZM481.881 368.068L476.161 375.215L470.442 368.068H481.881ZM471.014 366.353L476.447 359.492L481.881 366.353H471.014ZM482.453 365.781L477.019 358.92L482.453 352.059V365.781ZM481.881 350.916L476.161 358.063L470.442 350.916H481.881ZM471.014 349.486L476.447 342.911L481.881 349.486H471.014ZM482.453 348.629L477.019 341.768L482.453 334.906V348.629ZM482.167 334.049L476.447 341.196L470.728 334.049H482.167ZM471.3 332.334L476.447 325.758L481.595 332.334H471.3ZM482.453 331.762L477.019 324.901L482.453 318.04V331.762Z" fill="var(--secondary-color)"/>
<path d="M1034.97 73.6142C1034.97 84.7634 1025.82 93.6256 1014.95 93.6256H976.059C964.906 93.6256 956.041 84.4775 956.041 73.6142C956.041 62.4649 965.192 53.6027 976.059 53.6027H1014.95C1025.82 53.3168 1034.97 62.4649 1034.97 73.6142Z" fill="var(--secondary-color)"/>
<path d="M1004.94 48.4568H986.927V51.0297H1004.94V48.4568Z" fill="var(--secondary-color)"/>
<path d="M1002.37 51.3157H989.5V56.1756H1002.37V51.3157Z" fill="var(--secondary-color)"/>
<path d="M662.622 428.103H677.779V340.91H662.622V428.103ZM675.777 342.625L670.058 349.772L664.338 342.625H675.777ZM664.052 343.769L669.486 350.63L664.052 357.491V343.769ZM664.052 360.921L669.486 367.782L664.052 374.643V360.921ZM664.052 377.788L669.486 384.649L664.052 391.51V377.788ZM664.052 394.941L669.486 401.802L664.052 408.663V394.941ZM664.052 411.808L669.486 418.669L664.052 425.53V411.808ZM664.624 426.387L670.058 419.526L675.491 426.387H664.624ZM676.063 425.53L670.63 418.669L676.063 411.808V425.53ZM675.491 410.95L670.058 417.811L664.624 410.95H675.491ZM664.624 409.235L670.058 402.374L675.491 409.235H664.624ZM676.063 408.377L670.63 401.516L676.063 394.655V408.377ZM675.777 393.797L670.058 400.944L664.338 393.797H675.777ZM664.624 392.082L670.058 385.221L675.491 392.082H664.624ZM676.063 391.51L670.63 384.649L676.063 377.788V391.51ZM675.777 376.931L670.058 384.077L664.338 376.931H675.777ZM664.91 375.215L670.344 368.64L675.777 375.215H664.91ZM676.063 374.358L670.63 367.497L676.063 360.635V374.358ZM675.777 359.778L670.058 366.925L664.338 359.778H675.777ZM664.91 358.063L670.058 351.487L675.205 358.063H664.91ZM676.063 357.491L670.63 350.63L676.063 343.769V357.491Z" fill="var(--secondary-color)"/>
<path d="M312.579 748H327.736V660.807H312.579V748ZM326.02 662.522L320.301 669.669L314.581 662.522H326.02ZM314.295 663.666L319.729 670.527L314.295 677.388V663.666ZM314.295 680.819L319.729 687.68L314.295 694.541V680.819ZM314.295 697.685L319.729 704.546L314.295 711.408V697.685ZM314.295 714.838L319.729 721.699L314.295 728.56V714.838ZM314.295 731.705L319.729 738.566L314.295 745.427V731.705ZM314.581 746.285L320.015 739.424L325.448 746.285H314.581ZM326.02 745.427L320.587 738.566L326.02 731.705V745.427ZM325.734 730.847L320.301 737.708L314.581 730.847H325.734ZM314.867 729.132L320.301 722.271L325.734 729.132H314.867ZM326.02 728.274L320.587 721.413L326.02 714.552V728.274ZM325.734 713.695L320.015 720.841L314.295 713.695H325.734ZM314.867 711.979L320.301 705.118L325.734 711.979H314.867ZM326.02 711.408L320.587 704.546L326.02 697.685V711.408ZM325.734 696.828L320.015 703.975L314.295 696.828H325.734ZM314.867 695.112L320.301 688.537L325.734 695.112H314.867ZM326.306 694.255L320.873 687.394L326.306 680.533V694.255ZM325.734 679.675L320.015 686.822L314.295 679.675H325.734ZM314.867 677.96L320.015 671.385L325.162 677.96H314.867ZM326.306 677.388L320.873 670.527L326.306 663.666V677.388Z" fill="var(--secondary-color)"/>
<path d="M374.352 748H389.509V660.807H374.352V748ZM387.507 662.522L381.787 669.669L376.067 662.522H387.507ZM375.781 663.666L381.215 670.527L375.781 677.388V663.666ZM375.781 680.819L381.215 687.68L375.781 694.541V680.819ZM375.781 697.685L381.215 704.546L375.781 711.408V697.685ZM375.781 714.838L381.215 721.699L375.781 728.56V714.838ZM375.781 731.705L381.215 738.566L375.781 745.427V731.705ZM376.353 746.285L381.787 739.424L387.221 746.285H376.353ZM387.793 745.427L382.359 738.566L387.793 731.705V745.427ZM387.221 730.847L381.787 737.708L376.353 730.847H387.221ZM376.353 729.132L381.787 722.271L387.221 729.132H376.353ZM387.793 728.274L382.359 721.413L387.793 714.552V728.274ZM387.507 713.695L381.787 720.841L376.067 713.695H387.507ZM376.353 711.979L381.787 705.118L387.221 711.979H376.353ZM387.793 711.408L382.359 704.546L387.793 697.685V711.408ZM387.507 696.828L381.787 703.975L376.067 696.828H387.507ZM376.639 695.112L382.073 688.537L387.507 695.112H376.639ZM387.793 694.255L382.359 687.394L387.793 680.533V694.255ZM387.507 679.675L381.787 686.822L376.067 679.675H387.507ZM376.639 677.96L381.787 671.385L386.935 677.96H376.639ZM387.793 677.388L382.359 670.527L387.793 663.666V677.388Z" fill="var(--secondary-color)"/>
<path d="M432.692 748H447.849V660.807H432.692V748ZM446.133 662.522L440.414 669.669L434.694 662.522H446.133ZM434.408 663.666L439.842 670.527L434.408 677.388V663.666ZM434.408 680.819L439.842 687.68L434.408 694.541V680.819ZM434.408 697.685L439.842 704.546L434.408 711.408V697.685ZM434.408 714.838L439.842 721.699L434.408 728.56V714.838ZM434.408 731.705L439.842 738.566L434.408 745.427V731.705ZM434.98 746.285L440.414 739.424L445.847 746.285H434.98ZM446.419 745.427L440.986 738.566L446.419 731.705V745.427ZM445.847 730.847L440.414 737.708L434.98 730.847H445.847ZM434.98 729.132L440.414 722.271L445.847 729.132H434.98ZM446.419 728.274L440.986 721.413L446.419 714.552V728.274ZM446.133 713.695L440.414 720.841L434.694 713.695H446.133ZM434.98 711.979L440.414 705.118L445.847 711.979H434.98ZM446.419 711.408L440.986 704.546L446.419 697.685V711.408ZM446.133 696.828L440.414 703.975L434.694 696.828H446.133ZM434.98 695.112L440.414 688.537L445.847 695.112H434.98ZM446.419 694.255L440.986 687.394L446.419 680.533V694.255ZM446.133 679.675L440.414 686.822L434.694 679.675H446.133ZM435.266 677.96L440.414 671.385L445.561 677.96H435.266ZM446.419 677.388L440.986 670.527L446.419 663.666V677.388Z" fill="var(--secondary-color)"/>
<path d="M617.437 748H632.594V660.807H617.437V748ZM630.878 662.522L625.158 669.669L619.439 662.522H630.878ZM619.153 663.666L624.586 670.527L619.153 677.388V663.666ZM619.153 680.819L624.586 687.68L619.153 694.541V680.819ZM618.867 697.685L624.301 704.546L618.867 711.408V697.685ZM618.867 714.838L624.301 721.699L618.867 728.56V714.838ZM618.867 731.705L624.301 738.566L618.867 745.427V731.705ZM619.439 746.285L624.872 739.424L630.306 746.285H619.439ZM630.878 745.427L625.444 738.566L630.878 731.705V745.427ZM630.592 730.847L625.158 737.708L619.725 730.847H630.592ZM619.725 729.132L625.158 722.271L630.592 729.132H619.725ZM630.878 728.274L625.444 721.413L630.878 714.552V728.274ZM630.592 713.695L624.872 720.841L619.153 713.695H630.592ZM619.725 711.979L625.158 705.118L630.592 711.979H619.725ZM630.878 711.408L625.444 704.546L630.878 697.685V711.408ZM630.592 696.828L624.872 703.975L619.153 696.828H630.592ZM619.725 695.112L625.158 688.537L630.592 695.112H619.725ZM630.878 694.255L625.444 687.394L630.878 680.533V694.255ZM630.592 679.675L624.872 686.822L619.153 679.675H630.592ZM619.725 677.96L624.872 671.385L630.02 677.96H619.725ZM630.878 677.388L625.444 670.527L630.878 663.666V677.388Z" fill="var(--secondary-color)"/>
<path d="M678.923 748H694.08V660.807H678.923V748ZM692.364 662.522L686.645 669.669L680.925 662.522H692.364ZM680.639 663.666L686.073 670.527L680.639 677.388V663.666ZM680.639 680.819L686.073 687.68L680.639 694.541V680.819ZM680.639 697.685L686.073 704.546L680.639 711.408V697.685ZM680.639 714.838L686.073 721.699L680.639 728.56V714.838ZM680.639 731.705L686.073 738.566L680.639 745.427V731.705ZM681.211 746.285L686.645 739.424L692.078 746.285H681.211ZM692.65 745.427L687.217 738.566L692.65 731.705V745.427ZM692.078 730.847L686.645 737.708L681.211 730.847H692.078ZM681.211 729.132L686.645 722.271L692.078 729.132H681.211ZM692.65 728.274L687.217 721.413L692.65 714.552V728.274ZM692.364 713.695L686.645 720.841L680.925 713.695H692.364ZM681.211 711.979L686.645 705.118L692.078 711.979H681.211ZM692.65 711.408L687.217 704.546L692.65 697.685V711.408ZM692.364 696.828L686.645 703.975L680.925 696.828H692.364ZM681.211 695.112L686.645 688.537L692.078 695.112H681.211ZM692.65 694.255L687.217 687.394L692.65 680.533V694.255ZM692.364 679.675L686.645 686.822L680.925 679.675H692.364ZM681.497 677.96L686.645 671.385L691.792 677.96H681.497ZM692.65 677.388L687.217 670.527L692.65 663.666V677.388Z" fill="var(--secondary-color)"/>
<path d="M737.55 748H752.707V660.807H737.55V748ZM750.991 662.522L745.271 669.669L739.552 662.522H750.991ZM739.266 663.666L744.699 670.527L739.266 677.388V663.666ZM739.266 680.819L744.699 687.68L739.266 694.541V680.819ZM739.266 697.685L744.699 704.546L739.266 711.408V697.685ZM739.266 714.838L744.699 721.699L739.266 728.56V714.838ZM739.266 731.705L744.699 738.566L739.266 745.427V731.705ZM739.838 746.285L745.271 739.424L750.705 746.285H739.838ZM751.277 745.427L745.843 738.566L751.277 731.705V745.427ZM750.705 730.847L745.271 737.708L739.838 730.847H750.705ZM739.838 729.132L745.271 722.271L750.705 729.132H739.838ZM751.277 728.274L745.843 721.413L751.277 714.552V728.274ZM750.705 713.695L744.985 720.841L739.266 713.695H750.705ZM739.838 711.979L745.271 705.118L750.705 711.979H739.838ZM751.277 711.408L745.843 704.546L751.277 697.685V711.408ZM750.705 696.828L744.985 703.975L739.266 696.828H750.705ZM739.838 695.112L745.271 688.537L750.705 695.112H739.838ZM751.277 694.255L745.843 687.394L751.277 680.533V694.255ZM750.991 679.675L745.271 686.822L739.552 679.675H750.991ZM739.838 677.96L744.985 671.385L750.133 677.96H739.838ZM751.277 677.388L745.843 670.527L751.277 663.666V677.388Z" fill="var(--secondary-color)"/>
<path d="M694.652 428.103H709.809V340.91H694.652V428.103ZM707.807 342.625L702.088 349.772L696.368 342.625H707.807ZM696.082 343.769L701.516 350.63L696.082 357.491V343.769ZM696.082 360.921L701.516 367.782L696.082 374.643V360.921ZM696.082 377.788L701.516 384.649L696.082 391.51V377.788ZM696.082 394.941L701.516 401.802L696.082 408.663V394.941ZM696.082 411.808L701.516 418.669L696.082 425.53V411.808ZM696.654 426.387L702.088 419.526L707.521 426.387H696.654ZM708.093 425.53L702.66 418.669L708.093 411.808V425.53ZM707.521 410.95L702.088 417.811L696.654 410.95H707.521ZM696.654 409.235L702.088 402.374L707.521 409.235H696.654ZM708.093 408.377L702.66 401.516L708.093 394.655V408.377ZM707.807 393.797L702.088 400.944L696.368 393.797H707.807ZM696.654 392.082L702.088 385.221L707.521 392.082H696.654ZM708.093 391.51L702.66 384.649L708.093 377.788V391.51ZM707.807 376.931L702.088 384.077L696.368 376.931H707.807ZM696.654 375.215L702.088 368.64L707.521 375.215H696.654ZM708.093 374.358L702.66 367.497L708.093 360.635V374.358ZM707.807 359.778L702.088 366.925L696.368 359.778H707.807ZM696.94 358.063L702.088 351.487L707.235 358.063H696.94ZM708.093 357.491L702.66 350.63L708.093 343.769V357.491Z" fill="var(--secondary-color)"/>
<g opacity="0.6">
<path d="M827.634 340.91H786.453V426.959H827.634V340.91Z" fill="var(--secondary-color)"/>
<path d="M835.07 343.197V418.383H832.782V402.088H827.348V400.658H832.782V385.793H827.348V384.363H832.782V369.498H827.348V367.782H832.782V352.917H827.348V351.487H832.782V342.911C832.782 339.766 830.208 337.479 827.348 337.479C825.06 337.479 823.059 338.909 822.201 340.91H819.913C820.771 337.765 823.917 335.478 827.348 335.478C831.638 335.192 835.07 338.909 835.07 343.197Z" fill="var(--secondary-color)"/>
<path d="M829.636 422.671H784.451V428.388H829.636V422.671Z" fill="var(--secondary-color)"/>
<path d="M883.401 361.779H852.229V427.245H883.401V361.779Z" fill="var(--secondary-color)"/>
<path d="M846.509 363.494V420.384H848.225V408.091H852.229V406.948H848.225V395.798H852.229V394.655H848.225V383.506H852.229V382.362H848.225V371.213H852.229V370.069H848.225V363.78C848.225 361.493 850.227 359.492 852.515 359.492C854.231 359.492 855.661 360.635 856.233 362.065H857.948C857.091 359.492 855.089 357.777 852.229 357.777C849.083 357.777 846.509 360.35 846.509 363.494Z" fill="var(--secondary-color)"/>
<path d="M885.117 423.814H850.799V428.103H885.117V423.814Z" fill="var(--secondary-color)"/>
</g>
<path d="M129.55 118.497H123.545V131.076H129.55V118.497Z" fill="var(--secondary-color)"/>
<path d="M153.573 118.497H147.567V131.076H153.573V118.497Z" fill="var(--secondary-color)"/>
<path d="M170.446 118.497H164.44V131.076H170.446V118.497Z" fill="var(--secondary-color)"/>
<path d="M214.773 118.497H208.767V131.076H214.773V118.497Z" fill="var(--secondary-color)"/>
<path d="M144.993 104.203C144.993 113.351 152.429 121.07 161.866 121.07H217.347C226.498 121.07 234.22 113.637 234.22 104.203C234.22 95.0551 226.784 87.3364 217.347 87.3364H161.866C152.715 87.3364 144.993 95.0551 144.993 104.203Z" fill="var(--secondary-color)"/>
<path d="M216.203 120.498C216.203 121.356 217.061 122.213 217.919 122.213C218.777 122.213 219.635 121.356 219.635 120.498V87.6223C219.635 86.7646 218.777 85.907 217.919 85.907C217.061 85.907 216.203 86.7646 216.203 87.6223V120.498Z" fill="var(--secondary-color)"/>
<path d="M187.891 120.498C187.891 121.356 188.749 122.213 189.607 122.213C190.465 122.213 191.322 121.356 191.322 120.498V87.6223C191.322 86.7646 190.465 85.907 189.607 85.907C188.749 85.907 187.891 86.7646 187.891 87.6223V120.498Z" fill="var(--secondary-color)"/>
<path d="M159.578 120.498C159.578 121.356 160.436 122.213 161.294 122.213C162.152 122.213 163.01 121.356 163.01 120.498V87.6223C163.01 86.7646 162.152 85.907 161.294 85.907C160.436 85.907 159.578 86.7646 159.578 87.6223V120.498Z" fill="var(--secondary-color)"/>
<path d="M139.274 108.491C140.132 108.491 140.704 107.92 140.704 107.062V94.4834H143.563C144.421 94.4834 144.993 93.9116 144.993 93.054V76.4731C144.993 75.6155 144.421 75.0437 143.563 75.0437C142.705 75.0437 142.133 75.6155 142.133 76.4731V91.3387H139.274C138.416 91.3387 137.844 91.9105 137.844 92.7681V106.776C137.558 107.92 138.416 108.491 139.274 108.491Z" fill="var(--secondary-color)"/>
<path d="M128.692 108.491C129.55 108.491 130.122 107.92 130.122 107.062V94.4834H132.696C133.554 94.4834 134.126 93.9116 134.126 93.054V76.4731C134.126 75.6155 133.554 75.0437 132.696 75.0437C131.838 75.0437 131.266 75.6155 131.266 76.4731V91.3387H128.692C127.834 91.3387 127.262 91.9105 127.262 92.7681V106.776C126.976 107.92 127.834 108.491 128.692 108.491Z" fill="var(--secondary-color)"/>
<path d="M139.274 76.473C139.274 78.76 141.276 80.7612 143.563 80.7612C144.707 80.7612 145.851 80.1894 146.423 79.6176C147.281 78.76 147.567 77.9024 147.567 76.473C147.567 74.186 145.565 72.1848 143.277 72.1848C141.275 72.1848 139.274 74.186 139.274 76.473Z" fill="var(--secondary-color)"/>
<path d="M140.132 76.4731C140.132 78.1883 141.562 79.9036 143.563 79.9036C144.421 79.9036 145.279 79.6177 145.851 79.046L143.563 76.759V73.3284C141.562 73.0425 140.132 74.4719 140.132 76.4731Z" fill="var(--primary-color)"/>
<path d="M128.692 76.473C128.692 78.76 130.694 80.7611 132.982 80.7611C135.27 80.7611 137.272 78.76 137.272 76.473C137.272 75.3294 136.7 74.1859 136.128 73.6142C135.27 72.7565 134.412 72.4707 133.268 72.4707C130.408 72.1848 128.692 74.1859 128.692 76.473Z" fill="var(--secondary-color)"/>
<path d="M129.55 76.473C129.55 78.1883 130.98 79.9035 132.982 79.9035C134.698 79.9035 136.414 78.4742 136.414 76.473C136.414 75.6154 136.128 74.7577 135.27 74.186L132.982 76.473V73.0425C130.98 73.0425 129.55 74.4719 129.55 76.473Z" fill="var(--primary-color)"/>
<path d="M157.291 103.917H120.113V120.784H157.291V103.917Z" fill="var(--secondary-color)"/>
<g opacity="0.61">
<path d="M772.44 484.707H768.15V493.855H772.44V484.707Z" fill="var(--secondary-color)"/>
<path d="M754.995 484.707H750.705V493.855H754.995V484.707Z" fill="var(--secondary-color)"/>
<path d="M743.269 484.707H738.98V493.855H743.269V484.707Z" fill="var(--secondary-color)"/>
<path d="M711.239 484.707H706.95V493.855H711.239V484.707Z" fill="var(--secondary-color)"/>
<path d="M756.997 474.415C756.997 480.99 751.563 486.422 744.985 486.422H705.234C698.656 486.422 693.222 480.99 693.222 474.415C693.222 467.84 698.656 462.408 705.234 462.408H744.985C751.563 462.408 756.997 467.84 756.997 474.415Z" fill="var(--secondary-color)"/>
<path d="M706.092 486.136C706.092 486.708 705.52 487.279 704.948 487.279C704.376 487.279 703.804 486.708 703.804 486.136V462.408C703.804 461.836 704.376 461.264 704.948 461.264C705.52 461.264 706.092 461.836 706.092 462.408V486.136Z" fill="var(--secondary-color)"/>
<path d="M726.396 486.136C726.396 486.708 725.824 487.279 725.252 487.279C724.681 487.279 724.109 486.708 724.109 486.136V462.408C724.109 461.836 724.681 461.264 725.252 461.264C725.824 461.264 726.396 461.836 726.396 462.408V486.136Z" fill="var(--secondary-color)"/>
<path d="M746.701 486.136C746.701 486.708 746.129 487.279 745.557 487.279C744.985 487.279 744.413 486.708 744.413 486.136V462.408C744.413 461.836 744.985 461.264 745.557 461.264C746.129 461.264 746.701 461.836 746.701 462.408V486.136Z" fill="var(--secondary-color)"/>
<path d="M761.286 477.56C760.714 477.56 760.142 476.988 760.142 476.416V467.268H758.14C757.569 467.268 756.997 466.696 756.997 466.125V454.404C756.997 453.832 757.569 453.26 758.14 453.26C758.712 453.26 759.284 453.832 759.284 454.404V465.267H761.286C761.858 465.267 762.43 465.839 762.43 466.41V476.416C762.43 476.988 761.858 477.56 761.286 477.56Z" fill="var(--secondary-color)"/>
<path d="M768.722 477.56C768.15 477.56 767.578 476.988 767.578 476.416V467.268H765.576C765.004 467.268 764.432 466.696 764.432 466.125V454.404C764.432 453.832 765.004 453.26 765.576 453.26C766.148 453.26 766.72 453.832 766.72 454.404V465.267H768.722C769.294 465.267 769.866 465.839 769.866 466.41V476.416C769.866 476.988 769.58 477.56 768.722 477.56Z" fill="var(--secondary-color)"/>
<path d="M761.286 454.403C761.286 456.119 759.856 457.548 758.141 457.548C757.283 457.548 756.425 457.262 756.139 456.69C755.567 456.119 755.281 455.261 755.281 454.403C755.281 452.688 756.711 451.259 758.427 451.259C759.857 451.545 761.286 452.688 761.286 454.403Z" fill="var(--secondary-color)"/>
<path d="M760.428 454.403C760.428 455.833 759.284 456.691 758.14 456.691C757.569 456.691 756.997 456.405 756.425 456.119L758.14 454.403V452.116C759.57 452.116 760.428 453.26 760.428 454.403Z" fill="var(--primary-color)"/>
<path d="M768.722 454.403C768.722 456.119 767.292 457.548 765.576 457.548C763.86 457.548 762.43 456.119 762.43 454.403C762.43 453.546 762.716 452.688 763.288 452.116C763.86 451.545 764.718 451.259 765.29 451.259C767.578 451.545 768.722 452.688 768.722 454.403Z" fill="var(--secondary-color)"/>
<path d="M768.15 454.403C768.15 455.833 767.006 456.691 765.862 456.691C764.432 456.691 763.574 455.547 763.574 454.403C763.574 453.832 763.86 453.26 764.432 452.688L766.148 454.403V452.116C767.006 452.116 768.15 453.26 768.15 454.403Z" fill="var(--primary-color)"/>
<path d="M775.013 474.415H748.417V486.422H775.013V474.415Z" fill="var(--secondary-color)"/>
</g>
<path d="M385.791 77.3306C384.361 77.3306 383.217 76.187 383.217 74.7576V52.7451H378.355C376.925 52.7451 375.781 51.6015 375.781 50.1722V21.2985C375.781 19.8691 376.925 18.7256 378.355 18.7256C379.785 18.7256 380.929 19.8691 380.929 21.2985V47.3134H385.791C387.221 47.3134 388.365 48.4569 388.365 49.8863V74.4718C388.365 76.187 387.221 77.3306 385.791 77.3306Z" fill="var(--secondary-color)"/>
<path d="M385.791 21.2984C385.791 25.3007 382.359 28.7312 378.355 28.7312C376.353 28.7312 374.351 27.8736 373.208 26.7301C372.064 25.3007 371.206 23.5854 371.206 21.5843C371.206 17.582 374.637 14.1514 378.641 14.1514C382.359 13.8656 385.791 17.2961 385.791 21.2984Z" fill="var(--secondary-color)"/>
<path d="M384.075 21.2984C384.075 24.443 381.501 27.0159 378.355 27.0159C376.639 27.0159 375.495 26.4442 374.351 25.3007L378.355 21.2984V15.5808C381.501 15.2949 384.075 18.1537 384.075 21.2984Z" fill="var(--primary-color)"/>
<path d="M404.094 77.3306C402.664 77.3306 401.52 76.187 401.52 74.7576V52.7451H396.658C395.228 52.7451 394.084 51.6015 394.084 50.1722V21.2985C394.084 19.8691 395.228 18.7256 396.658 18.7256C398.088 18.7256 399.232 19.8691 399.232 21.2985V47.3134H404.094C405.524 47.3134 406.668 48.4569 406.668 49.8863V74.4718C406.668 76.187 405.524 77.3306 404.094 77.3306Z" fill="var(--secondary-color)"/>
<path d="M404.094 21.2985C404.094 25.3008 400.662 28.7314 396.658 28.7314C392.654 28.7314 389.223 25.3008 389.223 21.2985C389.223 19.2974 390.081 17.2963 391.51 16.1527C392.654 14.7234 394.656 13.8657 396.658 13.8657C400.662 13.8657 404.094 17.2963 404.094 21.2985Z" fill="var(--secondary-color)"/>
<path d="M402.378 21.2986C402.378 24.4433 399.804 27.0162 396.658 27.0162C393.512 27.0162 390.939 24.4433 390.939 21.2986C390.939 19.5833 391.511 18.1539 392.654 17.2963L396.658 21.2986V15.581C399.804 15.2952 402.378 18.1539 402.378 21.2986Z" fill="var(--primary-color)"/>
<g opacity="0.6">
<path d="M416.963 188.537H419.251C420.395 188.537 421.539 188.823 422.683 189.395C420.681 188.251 418.679 187.965 416.963 188.537Z" fill="var(--secondary-color)"/>
<path d="M548.229 257.719L425.256 187.108L424.113 186.536C423.827 186.25 423.541 186.25 423.255 186.25C422.111 185.678 420.681 185.392 419.251 185.392H275.973C273.114 185.392 270.254 186.536 268.252 188.537C266.25 190.538 265.106 193.111 265.106 196.256C265.106 202.259 269.968 207.119 275.973 207.119H416.105L537.362 276.873C542.509 280.018 549.087 278.017 552.233 272.871C555.093 267.439 553.377 260.864 548.229 257.719ZM275.973 203.403C271.97 203.403 268.538 199.972 268.538 195.97C268.538 191.682 271.97 188.537 275.973 188.537H410.671C410.099 189.109 409.813 189.681 409.241 190.538C406.668 194.826 407.526 200.544 410.957 203.689H275.973V203.403ZM416.963 203.403L414.675 202.259C410.957 200.258 409.813 195.684 411.815 191.968C412.959 190.252 414.675 188.823 416.677 188.537C418.393 187.965 420.395 188.251 422.111 189.395L422.969 189.966C424.97 191.396 426.4 193.683 426.4 196.256C426.4 200.544 422.969 203.689 418.965 203.689H416.963V203.403ZM549.373 270.87C547.371 274.586 542.795 275.73 539.078 273.729L422.111 206.547C426.686 205.118 430.118 201.116 430.118 195.97C430.118 195.112 430.118 194.255 429.832 193.397L546.799 260.578C550.231 262.579 551.375 267.153 549.373 270.87Z" fill="var(--secondary-color)"/>
<path d="M281.979 195.97C281.979 199.114 279.405 201.687 276.259 201.687C273.114 201.687 270.54 199.114 270.54 195.97C270.54 192.825 273.114 190.252 276.259 190.252C279.405 190.252 281.979 192.825 281.979 195.97Z" fill="var(--secondary-color)"/>
<path d="M424.398 195.97C424.398 199.114 421.825 201.687 418.679 201.687C415.533 201.687 412.959 199.114 412.959 195.97C412.959 192.825 415.533 190.252 418.679 190.252C422.111 190.252 424.398 192.825 424.398 195.97Z" fill="var(--secondary-color)"/>
</g>
<g opacity="0.6">
<path d="M677.207 319.469H533.93C531.07 319.469 528.21 320.613 526.208 322.614C524.206 324.615 523.062 327.188 523.062 330.332C523.062 336.336 527.924 341.196 533.93 341.196H677.207C683.213 341.196 688.075 336.336 688.075 330.332C688.075 324.329 683.213 319.469 677.207 319.469ZM677.207 337.765H533.93C529.64 337.765 526.494 334.335 526.494 330.332C526.494 326.044 529.926 322.9 533.93 322.9H677.207C681.211 322.9 684.643 326.33 684.643 330.332C684.929 334.335 681.497 337.765 677.207 337.765Z" fill="var(--secondary-color)"/>
<path d="M539.936 330.332C539.936 333.477 537.362 336.05 534.216 336.05C531.07 336.05 528.496 333.477 528.496 330.332C528.496 327.188 531.07 324.615 534.216 324.615C537.362 324.615 539.936 327.188 539.936 330.332Z" fill="var(--secondary-color)"/>
<path d="M682.641 330.332C682.641 333.477 680.067 336.05 676.921 336.05C673.776 336.05 671.202 333.477 671.202 330.332C671.202 327.188 673.776 324.615 676.921 324.615C680.067 324.615 682.641 327.188 682.641 330.332Z" fill="var(--secondary-color)"/>
</g>
<g opacity="0.6">
<path d="M416.677 185.107H418.965C420.395 185.107 421.825 185.392 422.969 185.964C421.253 184.821 418.965 184.821 416.677 185.107Z" fill="var(--secondary-color)"/>
<path d="M547.371 269.726C545.941 272.299 542.509 273.443 539.65 271.728C537.076 270.298 535.932 266.868 537.648 264.009C539.078 261.436 542.509 260.292 545.369 262.008C547.943 263.723 548.801 267.154 547.371 269.726Z" fill="var(--secondary-color)"/>
</g>
<path opacity="0.6" d="M352.903 166.239H331.74V183.391H352.903V166.239Z" fill="var(--secondary-color)"/>
<path opacity="0.6" d="M415.492 164.987L411.316 181.623L431.842 186.772L436.018 170.136L415.492 164.987Z" fill="var(--secondary-color)"/>
<path opacity="0.6" d="M483.348 199.063L474.791 213.931L493.135 224.481L501.692 209.613L483.348 199.063Z" fill="var(--secondary-color)"/>
<path opacity="0.6" d="M554.775 237.48L542.644 249.611L557.61 264.567L569.741 252.437L554.775 237.48Z" fill="var(--secondary-color)"/>
<path opacity="0.6" d="M578.162 301.009L578.126 318.161L599.289 318.206L599.325 301.053L578.162 301.009Z" fill="var(--secondary-color)"/>
<path opacity="0.6" d="M639.649 301.009L639.613 318.161L660.776 318.206L660.812 301.053L639.649 301.009Z" fill="var(--secondary-color)"/>
<path opacity="0.6" d="M299.138 149.372H277.975V166.524H299.138V149.372Z" fill="var(--secondary-color)"/>
<path d="M534.788 445.541V559.892H524.778C519.345 559.892 514.769 555.318 514.769 549.887V445.541C514.769 438.966 512.195 432.963 507.619 428.389C503.044 423.815 497.038 421.242 490.461 421.242L324.59 421.528H313.151H283.695C271.97 421.528 260.816 416.953 252.523 408.663C244.229 400.373 239.654 389.223 239.654 377.502V175.387C239.654 161.95 228.786 151.087 215.345 151.087H44.3273C20.0188 151.087 0 131.361 0 106.776V-0.142334H20.0188V106.776C20.0188 120.212 30.8861 131.076 44.3273 131.076H215.059C239.368 131.076 259.386 150.801 259.386 175.387V377.502C259.386 384.077 261.96 390.081 266.536 394.655C271.112 399.229 277.117 401.802 283.695 401.802H313.151H324.59L490.461 401.516C502.186 401.516 513.339 406.09 521.633 414.381C530.212 422.671 534.788 433.82 534.788 445.541Z" fill="var(--secondary-color)"/>
<path d="M559.096 -0.142334V25.8725C559.096 49.6004 539.078 69.0401 514.769 69.0401H417.249C403.808 69.0401 392.94 79.9035 392.94 93.3397V206.833C392.94 231.419 372.922 251.144 348.613 251.144H249.377C243.943 251.144 239.368 246.57 239.368 241.139C239.368 235.707 243.943 231.133 249.377 231.133H348.613C362.054 231.133 372.922 220.269 372.922 206.833V93.0538C372.922 68.7542 392.94 48.7428 417.249 48.7428H514.769C528.21 48.7428 539.078 38.4512 539.078 25.5867V-0.142334H559.096Z" fill="var(--secondary-color)"/>
<path d="M1065 -0.142334V82.4764C1065 106.776 1044.98 126.787 1020.67 126.787H971.484C958.042 126.787 947.175 137.651 947.175 151.087V402.088C947.175 426.387 927.156 446.399 902.848 446.399H670.058C667.77 446.399 665.768 446.685 663.766 447.257C653.471 450.115 645.749 459.549 645.749 470.699V515.581C645.749 540.167 625.73 559.892 601.422 559.892H524.778C519.345 559.892 514.769 555.318 514.769 549.887C514.769 544.455 519.345 539.881 524.778 539.881H601.422C614.863 539.881 625.73 529.018 625.73 515.581V470.699C625.73 458.692 630.592 447.828 638.314 439.824C643.747 434.106 650.611 430.104 658.332 428.103C662.05 427.245 665.768 426.673 669.772 426.673H902.562C916.003 426.673 926.87 415.81 926.87 402.374V151.087C926.87 126.502 946.603 106.776 971.198 106.776H1020.39C1033.83 106.776 1044.7 95.9126 1044.7 82.4764V-0.142334H1065Z" fill="var(--secondary-color)"/>
<path d="M947.175 276.302C947.175 281.733 942.6 286.307 937.166 286.307H872.82C848.511 286.307 828.492 266.582 828.492 241.996V171.67C828.492 158.234 817.625 147.371 804.184 147.371H787.883C763.574 147.371 743.555 127.359 743.555 103.06V-0.142334H763.574V103.06C763.574 116.496 774.442 127.359 787.883 127.359H804.184C828.778 127.359 848.511 147.371 848.511 171.67V241.996C848.511 255.432 859.379 266.296 872.82 266.296H937.166C942.6 266.296 947.175 270.87 947.175 276.302Z" fill="var(--secondary-color)"/>
<path d="M744.127 284.02V436.393C744.127 441.825 739.552 446.399 734.118 446.399C728.684 446.399 724.109 441.825 724.109 436.393V284.02C724.109 270.584 713.241 259.721 699.8 259.721H692.364C669.772 259.721 651.183 242.854 648.323 221.127C648.037 219.126 648.037 217.411 648.037 215.41V-0.142334H668.056V215.41C668.056 228.846 678.923 239.709 692.364 239.709H699.8C724.395 239.709 744.127 259.435 744.127 284.02Z" fill="var(--secondary-color)"/>
<g opacity="0.54">
<path d="M401.806 367.497V399.229C401.806 402.374 399.232 404.947 396.086 404.947C392.94 404.947 390.367 402.374 390.367 399.229V367.497C390.367 359.492 384.075 353.203 376.067 353.203H338.89C324.59 353.203 313.151 341.482 313.151 327.188V81.9046C313.151 73.9 306.86 67.6107 298.852 67.6107H243.943C229.644 67.6107 218.205 55.8897 218.205 41.5958V-0.142334H229.644V41.5958C229.644 49.6004 235.936 55.8897 243.943 55.8897H298.852C313.151 55.8897 324.59 67.6107 324.59 81.9046V327.188C324.59 335.192 330.882 341.482 338.89 341.482H376.067C390.081 341.482 401.806 353.203 401.806 367.497Z" fill="var(--secondary-color)"/>
</g>
<g opacity="0.6">
<path d="M659.19 215.41C659.19 218.554 656.617 221.127 653.471 221.127H570.536C556.237 221.127 544.797 209.692 544.797 195.398V158.234C544.797 150.229 538.506 143.94 530.498 143.94H467.582C453.283 143.94 441.844 132.505 441.844 118.211V-0.142334H453.283V118.211C453.283 126.216 459.574 132.505 467.582 132.505H530.498C544.797 132.505 556.237 143.94 556.237 158.234V195.398C556.237 203.403 562.528 209.692 570.536 209.692H653.471C656.617 209.692 659.19 212.265 659.19 215.41Z" fill="var(--secondary-color)"/>
</g>
<path d="M677.493 446.399H670.058C667.77 446.399 665.768 446.685 663.766 447.256C660.906 442.682 656.045 439.824 650.325 439.824H608.572C592.556 439.824 579.687 426.673 579.687 410.378V397.228C579.687 388.08 572.538 380.933 563.672 380.933H521.919C505.904 380.933 493.034 367.782 493.034 351.487V69.04H505.904V351.773C505.904 360.921 513.053 368.068 521.919 368.068H563.672C579.687 368.068 592.556 381.219 592.556 397.514V410.664C592.556 419.812 599.706 426.959 608.572 426.959H650.325C653.185 426.959 656.045 427.245 658.618 428.103C667.484 430.676 674.634 437.537 677.493 446.399Z" fill="var(--secondary-color)"/>
<path d="M530.498 498.429C530.498 501.573 527.924 504.146 524.778 504.146H338.89C324.59 504.146 313.151 492.711 313.151 478.417V401.516H324.59V478.417C324.59 486.422 330.882 492.711 338.89 492.711H524.778C527.924 492.711 530.498 495.284 530.498 498.429Z" fill="var(--secondary-color)"/>
<g opacity="0.6">
<path d="M625.73 503.86C626.302 504.146 626.874 504.146 627.732 504.146H645.749H865.098C879.397 504.146 890.837 492.711 890.837 478.417V446.97C890.837 446.685 890.837 446.685 890.837 446.399C890.551 443.54 887.977 441.253 885.117 441.253C882.257 441.253 879.683 443.54 879.397 446.399C879.397 446.685 879.397 446.685 879.397 446.97V478.417C879.397 486.422 873.106 492.711 865.098 492.711H645.749H627.732C627.16 492.711 626.302 492.711 625.73 492.997V503.86Z" fill="var(--secondary-color)"/>
</g>
<g opacity="0.62">
<path d="M774.156 161.093C763.002 172.242 763.002 190.538 774.156 201.973C785.309 213.122 803.612 213.122 814.765 201.973C825.918 190.824 825.918 172.528 814.765 161.093C803.612 149.943 785.309 149.943 774.156 161.093ZM811.047 197.971C801.896 207.119 787.025 207.119 777.873 197.971C768.722 188.823 768.722 173.957 777.873 164.809C787.025 155.661 801.896 155.661 811.047 164.809C820.485 173.957 820.485 188.823 811.047 197.971Z" fill="var(--secondary-color)"/>
<path d="M811.401 160.997L775.002 197.383L778.844 201.224L815.243 164.838L811.401 160.997Z" fill="var(--secondary-color)"/>
<path d="M778.676 161.051L774.833 164.892L811.233 201.278L815.075 197.437L778.676 161.051Z" fill="var(--secondary-color)"/>
<path d="M799.608 175.958C802.468 178.817 802.468 183.105 799.608 185.678C796.748 188.537 792.458 188.537 789.884 185.678C787.025 183.105 787.025 178.531 789.884 175.958C792.458 173.1 796.748 173.1 799.608 175.958Z" fill="var(--secondary-color)"/>
<path d="M797.892 177.674C799.608 179.389 799.608 182.248 797.892 183.963C796.176 185.678 793.316 185.678 791.6 183.963C789.884 182.248 789.884 179.389 791.6 177.674C793.316 175.958 796.176 175.958 797.892 177.674Z" fill="var(--secondary-color)"/>
</g>
<path opacity="0.6" d="M1014.67 -0.142334V149.944C1014.67 161.093 1005.8 169.955 994.648 169.955H991.788C986.927 169.955 983.209 173.671 983.209 178.245C983.209 189.109 974.344 197.971 963.19 197.971H890.837V298.314C890.837 312.608 879.397 324.043 865.098 324.043H827.92C819.913 324.043 813.621 330.332 813.621 338.337V340.91H802.182V338.337C802.182 324.043 813.621 312.608 827.92 312.608H865.098C873.106 312.608 879.397 306.319 879.397 298.314V106.776C879.397 98.7714 873.106 92.4821 865.098 92.4821H853.659C839.36 92.4821 827.92 81.047 827.92 66.7531V55.318C827.92 41.0241 839.36 29.589 853.659 29.589H866.814V26.1584H875.394C876.251 25.0149 877.395 24.1573 878.825 23.2997V19.8691H882.829V17.868H876.537C875.679 17.868 874.822 17.0103 874.822 16.1527C874.822 15.2951 875.679 14.4374 876.537 14.4374H882.829C882.829 13.2939 883.687 12.7222 884.831 12.7222C885.975 12.7222 886.833 13.5798 886.833 14.4374H893.124C893.982 14.4374 894.84 15.2951 894.84 16.1527C894.84 17.0103 893.982 17.868 893.124 17.868H886.833V19.8691H891.123V23.0138C892.552 23.8714 893.696 24.729 894.554 25.8726H903.134V29.589H942.027C950.035 29.589 956.327 23.2997 956.327 15.2951V-0.142334H967.766V15.2951C967.766 29.589 956.327 41.0241 942.027 41.0241H903.134V43.8829H892.552C890.265 45.5981 887.691 46.4558 884.831 46.4558C881.971 46.4558 879.397 45.5981 877.109 43.8829H866.528V41.0241H853.373C845.365 41.0241 839.074 47.3134 839.074 55.318V66.7531C839.074 74.7577 845.365 81.047 853.373 81.047H864.812C879.111 81.047 890.551 92.4821 890.551 106.776V186.536H962.904C967.766 186.536 971.484 182.82 971.484 178.245C971.484 167.382 980.349 158.52 991.503 158.52H994.362C999.224 158.52 1002.94 154.803 1002.94 149.944V-0.142334H1014.67Z" fill="var(--secondary-color)"/>
<path d="M423.541 489.566H387.507V507.005H423.541V489.566Z" fill="var(--secondary-color)"/>
<path d="M405.524 509.864C412.315 509.864 417.821 504.36 417.821 497.571C417.821 490.782 412.315 485.278 405.524 485.278C398.732 485.278 393.226 490.782 393.226 497.571C393.226 504.36 398.732 509.864 405.524 509.864Z" fill="var(--secondary-color)"/>
<path d="M411.529 483.563H399.232V489.566H411.529V483.563Z" fill="var(--secondary-color)"/>
<path d="M415.247 480.133C415.247 480.99 414.389 481.848 413.531 481.848H396.944C396.086 481.848 395.228 480.99 395.228 480.133C395.228 479.275 396.086 478.417 396.944 478.417H413.531C414.675 478.417 415.247 479.275 415.247 480.133Z" fill="var(--secondary-color)"/>
<path d="M407.526 484.135C407.526 485.278 406.668 486.136 405.524 486.136C404.38 486.136 403.522 485.278 403.522 484.135V478.703C403.522 477.56 404.38 476.702 405.524 476.702C406.668 476.702 407.526 477.56 407.526 478.703V484.135Z" fill="var(--secondary-color)"/>
<path d="M474.732 45.5981H421.539V71.613H474.732V45.5981Z" fill="var(--secondary-color)"/>
<path d="M466.438 57.3191C466.438 67.3249 458.144 75.6153 448.135 75.6153C438.126 75.6153 429.832 67.3249 429.832 57.3191C429.832 47.3134 438.126 39.0229 448.135 39.0229C458.43 39.0229 466.438 47.3134 466.438 57.3191Z" fill="var(--secondary-color)"/>
<path d="M457.287 36.7358H439.27V45.5981H457.287V36.7358Z" fill="var(--secondary-color)"/>
<path d="M463.006 31.3043C463.006 32.7337 461.862 33.8772 460.432 33.8772H435.838C434.408 33.8772 433.264 32.7337 433.264 31.3043C433.264 29.875 434.408 28.7314 435.838 28.7314H460.432C461.862 28.7314 463.006 29.875 463.006 31.3043Z" fill="var(--secondary-color)"/>
<path d="M451.281 37.5936C451.281 39.3088 449.851 40.7382 448.135 40.7382C446.419 40.7382 444.989 39.3088 444.989 37.5936V29.3031C444.989 27.5878 446.419 26.1584 448.135 26.1584C449.851 26.1584 451.281 27.5878 451.281 29.3031V37.5936Z" fill="var(--secondary-color)"/>
<g opacity="0.59">
<path d="M247.375 344.055C247.375 347.199 244.801 349.772 241.655 349.772H210.197C195.898 349.772 184.459 338.337 184.459 324.043V261.15C184.459 253.145 178.167 246.856 170.16 246.856H156.433V368.354C156.433 372.928 159.292 376.931 162.438 376.931C172.162 376.931 179.883 385.793 179.883 396.942V416.382H168.444V396.942C168.444 392.368 165.584 388.366 162.438 388.366C152.715 388.366 144.993 379.503 144.993 368.354V246.856H131.266V250.573H120.113C117.825 252.288 114.965 253.431 111.819 253.431C108.673 253.431 105.814 252.288 103.526 250.573H92.3724V246.856H81.2191C66.92 246.856 55.4807 235.421 55.4807 221.127V106.776C55.4807 92.4821 66.92 81.047 81.2191 81.047H92.6584C100.666 81.047 106.958 74.7577 106.958 66.7531V-0.142334H118.397V66.7531C118.397 81.047 106.958 92.4821 92.6584 92.4821H81.2191C73.2116 92.4821 66.92 98.7714 66.92 106.776V221.127C66.92 229.132 73.2116 235.421 81.2191 235.421H92.3724V231.419H101.524C102.668 230.275 103.812 229.132 105.242 228.274V224.844H109.531V222.557H102.954C101.81 222.557 101.238 221.699 101.238 220.841C101.238 219.984 101.81 219.126 102.954 219.126H109.817C110.103 217.982 110.961 217.125 112.105 217.125C113.249 217.125 114.107 217.982 114.393 219.126H121.257C122.401 219.126 122.973 219.984 122.973 220.841C122.973 221.699 122.115 222.557 121.257 222.557H114.393V224.844H118.969V228.274C120.399 229.132 121.543 229.989 122.687 231.419H131.838V235.421H170.446C184.745 235.421 196.184 246.856 196.184 261.15V324.043C196.184 332.048 202.476 338.337 210.483 338.337H241.941C244.801 338.337 247.375 340.91 247.375 344.055Z" fill="var(--secondary-color)"/>
</g>
<path d="M601.994 537.308H550.517V562.465H601.994V537.308Z" fill="var(--secondary-color)"/>
<path d="M593.986 548.457C593.986 558.177 585.979 566.182 576.255 566.182C566.532 566.182 558.524 558.177 558.524 548.457C558.524 538.737 566.532 530.733 576.255 530.733C585.979 530.733 593.986 538.737 593.986 548.457Z" fill="var(--secondary-color)"/>
<path d="M584.835 528.731H567.39V537.308H584.835V528.731Z" fill="var(--secondary-color)"/>
<path d="M590.554 523.3C590.554 524.729 589.411 525.587 588.267 525.587H564.244C562.814 525.587 561.956 524.443 561.956 523.3C561.956 521.871 563.1 521.013 564.244 521.013H588.267C589.411 521.013 590.554 521.871 590.554 523.3Z" fill="var(--secondary-color)"/>
<path d="M579.115 529.303C579.115 531.019 577.685 532.162 576.255 532.162C574.539 532.162 573.396 530.733 573.396 529.303V521.299C573.396 519.583 574.825 518.44 576.255 518.44C577.971 518.44 579.115 519.869 579.115 521.299V529.303Z" fill="var(--secondary-color)"/>
<path d="M788.741 -1H785.023V128.503H788.741V-1Z" fill="var(--secondary-color)"/>
<path d="M812.477 -1H808.759V128.503H812.477V-1Z" fill="var(--secondary-color)"/>
<path d="M809.903 4.43164H787.311V5.86103H809.903V4.43164Z" fill="var(--secondary-color)"/>
<path d="M809.903 15.8667H787.311V17.2961H809.903V15.8667Z" fill="var(--secondary-color)"/>
<path d="M809.903 27.5879H787.311V29.0173H809.903V27.5879Z" fill="var(--secondary-color)"/>
<path d="M809.903 39.3088H787.311V40.7382H809.903V39.3088Z" fill="var(--secondary-color)"/>
<path d="M809.903 50.7439H787.311V52.1733H809.903V50.7439Z" fill="var(--secondary-color)"/>
<path d="M809.903 62.4648H787.311V63.8942H809.903V62.4648Z" fill="var(--secondary-color)"/>
<path d="M809.903 74.1858H787.311V75.6152H809.903V74.1858Z" fill="var(--secondary-color)"/>
<path d="M809.903 85.907H787.311V87.3364H809.903V85.907Z" fill="var(--secondary-color)"/>
<path d="M809.903 97.342H787.311V98.7714H809.903V97.342Z" fill="var(--secondary-color)"/>
<path d="M809.903 109.063H787.311V110.492H809.903V109.063Z" fill="var(--secondary-color)"/>
<path d="M809.903 120.784H787.311V122.213H809.903V120.784Z" fill="var(--secondary-color)"/>
<g opacity="0.6">
<path d="M656.617 503.574H653.471V611.922H656.617V503.574Z" fill="var(--secondary-color)"/>
<path d="M676.635 503.574H673.49V611.922H676.635V503.574Z" fill="var(--secondary-color)"/>
<path d="M674.347 508.148H655.473V509.292H674.347V508.148Z" fill="var(--secondary-color)"/>
<path d="M674.347 517.868H655.473V519.012H674.347V517.868Z" fill="var(--secondary-color)"/>
<path d="M674.347 527.588H655.473V528.732H674.347V527.588Z" fill="var(--secondary-color)"/>
<path d="M674.347 537.308H655.473V538.452H674.347V537.308Z" fill="var(--secondary-color)"/>
<path d="M674.347 547.028H655.473V548.171H674.347V547.028Z" fill="var(--secondary-color)"/>
<path d="M674.347 556.748H655.473V557.891H674.347V556.748Z" fill="var(--secondary-color)"/>
<path d="M674.347 566.468H655.473V567.611H674.347V566.468Z" fill="var(--secondary-color)"/>
<path d="M674.347 576.188H655.473V577.331H674.347V576.188Z" fill="var(--secondary-color)"/>
<path d="M674.347 585.907H655.473V587.051H674.347V585.907Z" fill="var(--secondary-color)"/>
<path d="M674.347 595.627H655.473V596.771H674.347V595.627Z" fill="var(--secondary-color)"/>
<path d="M674.347 605.347H655.473V606.49H674.347V605.347Z" fill="var(--secondary-color)"/>
</g>
<path d="M708.951 143.083L706.664 145.37L704.948 161.665L706.664 165.667H708.951L710.381 161.665L708.951 143.083Z" fill="var(--secondary-color)"/>
<path d="M687.503 175.959L690.649 176.816L705.806 169.955L708.093 166.525L707.236 164.523L702.946 165.095L687.503 175.959Z" fill="var(--secondary-color)"/>
<path d="M726.682 177.96L725.824 174.815L712.383 165.381L708.093 164.809L707.235 166.525L709.523 169.955L726.682 177.96Z" fill="var(--secondary-color)"/>
<path d="M704.662 165.667C704.662 167.382 706.092 168.526 707.521 168.526C709.237 168.526 710.381 167.096 710.381 165.667C710.381 163.952 708.951 162.808 707.521 162.808C706.092 162.808 704.662 163.952 704.662 165.667Z" fill="var(--secondary-color)"/>
<path d="M706.092 165.667C706.092 166.524 706.664 167.096 707.521 167.096C708.379 167.096 708.951 166.524 708.951 165.667C708.951 164.809 708.379 164.237 707.521 164.237C706.95 163.952 706.092 164.809 706.092 165.667Z" fill="var(--secondary-color)"/>
<path d="M667.484 138.508V191.967H707.521C722.393 191.967 734.404 179.961 734.404 165.095C734.404 150.229 722.393 138.222 707.521 138.222H667.484V138.508ZM707.807 189.395C694.652 189.395 683.785 178.531 683.785 165.381C683.785 152.23 694.652 141.367 707.807 141.367C720.963 141.367 731.83 152.23 731.83 165.381C731.83 178.531 720.963 189.395 707.807 189.395Z" fill="var(--secondary-color)"/>
<path d="M497.61 462.694L495.894 464.123L483.883 465.267L481.023 464.123V462.694L483.883 461.55L497.61 462.694Z" fill="var(--secondary-color)"/>
<path d="M473.301 478.131L472.729 476.13L477.877 464.981L480.165 462.98L481.595 463.837L481.309 466.982L473.301 478.131Z" fill="var(--secondary-color)"/>
<path d="M471.872 449.543L474.159 450.115L481.309 459.835L481.595 462.98L480.165 463.837L477.877 461.836L471.872 449.543Z" fill="var(--secondary-color)"/>
<path d="M481.023 465.553C479.879 465.553 478.735 464.695 478.735 463.266C478.735 462.122 479.593 460.979 481.023 460.979C482.167 460.979 483.311 461.836 483.311 463.266C483.025 464.695 482.167 465.553 481.023 465.553Z" fill="var(--secondary-color)"/>
<path d="M481.023 464.695C480.451 464.695 479.879 464.123 479.879 463.551C479.879 462.98 480.451 462.408 481.023 462.408C481.595 462.408 482.167 462.98 482.167 463.551C482.167 464.123 481.595 464.695 481.023 464.695Z" fill="var(--secondary-color)"/>
<path d="M500.756 463.266C500.756 452.402 491.89 443.54 481.023 443.54C470.156 443.54 461.29 452.402 461.29 463.266V492.711H500.756V463.266ZM481.023 445.827C490.746 445.827 498.754 453.832 498.754 463.551C498.754 473.271 490.746 481.276 481.023 481.276C471.3 481.276 463.292 473.271 463.292 463.551C463.578 453.546 471.3 445.827 481.023 445.827Z" fill="var(--secondary-color)"/>
<path d="M310.005 138.508H267.394L274.829 128.789V-0.142334H302.57V128.789L310.005 138.508Z" fill="var(--secondary-color)"/>
<path d="M281.121 233.134C281.121 235.993 278.833 237.994 276.259 237.994C273.4 237.994 271.398 235.707 271.398 233.134V195.97C271.398 193.111 273.686 191.11 276.259 191.11C279.119 191.11 281.121 193.397 281.121 195.97V233.134Z" fill="var(--secondary-color)"/>
<path d="M539.364 367.782C539.364 370.641 537.076 372.642 534.502 372.642C531.642 372.642 529.64 370.355 529.64 367.782V330.618C529.64 327.759 531.928 325.758 534.502 325.758C537.362 325.758 539.364 328.045 539.364 330.618V367.782Z" fill="var(--secondary-color)"/>
<path d="M724.109 288.594H648.037V342.911H724.109V288.594Z" fill="var(--secondary-color)"/>
<path d="M683.213 296.599H666.054V313.752H683.213V296.599Z" fill="var(--primary-color)"/>
<path d="M706.664 296.599H689.505V313.752H706.664V296.599Z" fill="var(--primary-color)"/>
<path d="M613.147 95.3408L610.573 111.064H599.992L597.418 95.3408H613.147Z" fill="var(--secondary-color)"/>
<path d="M612.575 127.359C610.859 129.646 607.999 131.647 604.854 131.647C599.992 131.647 595.988 128.217 595.988 123.071C595.988 119.069 597.704 117.068 599.42 115.638C601.136 114.495 602.852 113.923 602.852 113.065V111.064H607.427V114.495C607.427 115.352 607.141 115.924 606.856 116.496C606.57 117.068 605.998 117.354 605.14 117.354C602.566 117.354 600.278 119.641 600.278 122.213C600.278 124.786 602.566 127.073 605.14 127.073C607.713 127.073 610.001 124.786 610.001 122.213V121.928C610.001 120.212 610.573 119.641 611.717 119.641C612.575 119.641 615.149 122.499 612.575 127.359Z" fill="var(--secondary-color)"/>
<path d="M605.14 110.492C604.568 110.492 603.71 110.206 603.71 109.635L591.984 50.458C591.984 50.1721 591.984 49.8862 592.27 49.6003C592.556 49.3145 592.842 49.3145 593.414 49.3145H617.151C617.437 49.3145 618.009 49.3145 618.295 49.6003C618.581 49.8862 618.581 50.1721 618.581 50.458L606.57 109.349C606.57 110.206 605.998 110.492 605.14 110.492ZM595.13 51.3156L605.426 102.202L615.721 51.3156H595.13Z" fill="var(--secondary-color)"/>
<path d="M621.727 47.3134C621.727 51.8875 618.009 55.6039 613.433 55.6039H597.418C592.842 55.6039 589.125 51.8875 589.125 47.3134C589.125 42.7394 592.842 39.023 597.418 39.023H613.433C618.009 38.7371 621.727 42.7394 621.727 47.3134Z" fill="var(--secondary-color)"/>
<path d="M595.13 5.00342H591.984V47.3133H595.13V5.00342Z" fill="var(--secondary-color)"/>
<path d="M618.009 5.00342H614.863V47.3133H618.009V5.00342Z" fill="var(--secondary-color)"/>
<path d="M621.155 141.653H588.553V174.243H621.155V141.653Z" fill="var(--secondary-color)"/>
<path d="M617.437 144.226C616.865 144.226 616.579 143.94 616.293 143.654L604.854 127.931L593.128 143.654C592.556 144.226 591.699 144.512 591.127 143.94C590.555 143.368 590.269 142.511 590.841 141.939L603.71 124.5C603.996 124.215 604.282 123.929 604.854 123.929C605.426 123.929 605.712 124.215 605.998 124.5L618.581 141.939C619.153 142.511 618.867 143.368 618.295 143.94C618.009 143.94 617.723 144.226 617.437 144.226Z" fill="var(--secondary-color)"/>
<path d="M277.975 538.166L275.687 552.745H265.964L263.676 538.166H277.975Z" fill="var(--secondary-color)"/>
<path d="M277.689 567.325C275.973 569.612 273.4 571.327 270.826 571.327C266.25 571.327 262.818 568.183 262.532 563.609C262.532 559.892 264.248 557.891 265.678 556.748C267.394 555.604 268.824 555.318 268.824 554.461V552.459H272.828V555.604C272.828 556.176 272.542 557.034 272.256 557.319C271.97 557.891 271.398 558.177 270.826 558.177C268.252 558.177 266.536 560.178 266.536 562.465C266.536 565.038 268.538 566.753 270.826 566.753C273.114 566.753 275.115 564.752 275.115 562.465V562.179C275.115 560.464 275.687 560.178 276.545 560.178C277.403 560.464 279.977 563.037 277.689 567.325Z" fill="var(--secondary-color)"/>
<path d="M270.826 551.888C270.254 551.888 269.682 551.602 269.396 551.03L258.528 497.285C258.528 496.999 258.528 496.713 258.814 496.427C259.1 496.142 259.386 496.142 259.672 496.142H281.407C281.693 496.142 282.265 496.142 282.265 496.427C282.551 496.713 282.551 496.999 282.551 497.285L271.684 551.03C271.97 551.602 271.684 551.888 270.826 551.888ZM261.674 498.143L271.112 544.455L280.549 498.143H261.674Z" fill="var(--secondary-color)"/>
<path d="M285.983 494.426C285.983 498.714 282.551 502.145 278.261 502.145H263.676C259.386 502.145 255.955 498.714 255.955 494.426C255.955 490.138 259.386 486.708 263.676 486.708H278.261C282.551 486.708 285.983 490.138 285.983 494.426Z" fill="var(--secondary-color)"/>
<path d="M261.674 455.833H258.814V494.426H261.674V455.833Z" fill="var(--secondary-color)"/>
<path d="M282.551 455.833H279.691V494.426H282.551V455.833Z" fill="var(--secondary-color)"/>
<path d="M272.828 321.184H255.097V328.045H272.828V321.184Z" fill="var(--secondary-color)"/>
<path d="M295.134 324.615C295.134 332.334 289.129 338.337 281.407 338.337C273.972 338.337 267.68 332.334 267.68 324.615C267.68 320.899 269.11 317.468 271.684 314.895C273.972 312.322 277.689 310.893 281.407 310.893C289.129 310.893 295.134 317.182 295.134 324.615Z" fill="var(--secondary-color)"/>
<path d="M292.274 324.615C292.274 330.619 287.413 335.478 281.693 335.478C275.687 335.478 270.826 330.619 270.826 324.615C270.826 321.47 271.97 318.898 273.972 316.896L281.407 324.615V313.752C287.413 313.752 292.274 318.612 292.274 324.615Z" fill="var(--primary-color)"/>
<path d="M756.139 280.304H738.408V287.165H756.139V280.304Z" fill="var(--secondary-color)"/>
<path d="M778.445 283.734C778.445 291.453 772.44 297.456 764.718 297.456C757.283 297.456 750.991 291.453 750.991 283.734C750.991 280.018 752.421 276.587 754.995 274.014C757.283 271.442 761 270.012 764.718 270.012C772.44 270.012 778.445 276.016 778.445 283.734Z" fill="var(--secondary-color)"/>
<path d="M775.586 283.734C775.586 289.738 770.724 294.598 765.004 294.598C758.999 294.598 754.137 289.738 754.137 283.734C754.137 280.59 755.281 278.017 757.283 276.016L764.718 283.734V272.871C770.724 272.871 775.586 277.731 775.586 283.734Z" fill="var(--primary-color)"/>
<path d="M564.816 457.548C564.816 464.409 559.382 469.841 552.519 469.841C549.087 469.841 546.227 468.412 543.939 466.41C541.937 464.123 540.508 460.979 540.508 457.834C540.508 450.973 545.941 445.541 552.519 445.541C559.382 445.255 564.816 450.687 564.816 457.548Z" fill="var(--secondary-color)"/>
<path d="M562.242 457.548C562.242 462.694 557.953 466.982 552.519 466.982C549.945 466.982 547.657 465.839 545.655 464.123L552.519 457.262V447.828C557.953 447.828 562.242 452.117 562.242 457.548Z" fill="var(--primary-color)"/>
<path d="M545.655 454.689H534.216V460.979H545.655V454.689Z" fill="var(--secondary-color)"/>
<path d="M343.465 111.064C343.465 117.925 348.899 123.357 355.763 123.357C359.194 123.357 362.054 121.927 364.342 119.926C366.344 117.639 367.774 114.495 367.774 111.35C367.774 104.489 362.34 99.0571 355.763 99.0571C348.899 99.0571 343.465 104.489 343.465 111.064Z" fill="var(--secondary-color)"/>
<path d="M346.039 111.064C346.039 116.496 350.329 120.498 355.763 120.498C358.336 120.498 360.624 119.355 362.626 117.639L355.763 110.778V101.058C350.329 101.63 346.039 105.918 346.039 111.064Z" fill="var(--primary-color)"/>
<path d="M374.066 108.491H362.626V114.781H374.066V108.491Z" fill="var(--secondary-color)"/>
<path d="M898.844 227.702C898.844 234.563 904.278 239.995 911.141 239.995C914.573 239.995 917.433 238.566 919.721 236.564C921.723 234.277 923.153 231.133 923.153 227.988C923.153 221.127 917.719 215.695 911.141 215.695C904.278 215.695 898.844 221.127 898.844 227.702Z" fill="var(--secondary-color)"/>
<path d="M901.418 227.702C901.418 232.848 905.708 237.136 911.141 237.136C913.715 237.136 916.003 235.993 918.005 234.277L911.141 227.416V217.697C905.708 218.268 901.418 222.556 901.418 227.702Z" fill="var(--primary-color)"/>
<path d="M929.158 224.844H917.719V231.133H929.158V224.844Z" fill="var(--secondary-color)"/>
<path d="M459.288 601.63V630.79H453.569V689.967H303.714V597.628L342.893 559.606L381.787 597.628V601.63H459.288Z" fill="var(--secondary-color)"/>
<path opacity="0.6" d="M410.671 601.631H389.509L392.082 524.444H407.239L410.671 601.631Z" fill="var(--secondary-color)"/>
<path opacity="0.6" d="M717.245 624.215H701.23L703.232 555.604H714.957L717.245 624.215Z" fill="var(--secondary-color)"/>
<path opacity="0.6" d="M747.559 624.215H731.258L733.546 555.604H744.985L747.559 624.215Z" fill="var(--secondary-color)"/>
<path d="M445.275 601.631H425.256V591.911C425.256 580.762 435.838 572.185 449.565 572.185H510.479C512.767 572.185 514.769 570.184 514.769 567.897V530.733H534.788V567.897C534.788 581.333 523.921 592.197 510.479 592.197H449.565C447.563 592.197 446.133 592.768 445.275 593.34V601.631Z" fill="var(--secondary-color)"/>
<path d="M762.144 601.631V689.967H617.437V621.642L689.791 601.631V621.642L762.144 601.631Z" fill="var(--secondary-color)"/>
<path d="M313.151 448.972V460.407H188.749C177.595 460.407 168.73 451.545 168.73 440.395V416.382H180.169V440.395C180.169 445.255 184.173 448.972 188.749 448.972H313.151Z" fill="var(--secondary-color)"/>
<path d="M233.076 416.667H157.005V470.984H233.076V416.667Z" fill="var(--secondary-color)"/>
<path d="M192.18 424.386H175.021V441.539H192.18V424.386Z" fill="var(--primary-color)"/>
<path d="M215.631 424.386H198.472V441.539H215.631V424.386Z" fill="var(--primary-color)"/>
</g>
<defs>
<clipPath id="clip0_30_946">
<rect width="1065" height="749" fill="white" transform="translate(0 -1)"/>
</clipPath>
</defs>
</svg>
